<?xml version="1.0" encoding="UTF-8" standalone="no"?>
<!-- Created with Inkscape (http://www.inkscape.org/) -->

<svg
   width="176.38892mm"
   height="176.3889mm"
   viewBox="0 0 176.38892 176.3889"
   version="1.1"
   id="svg5"
   xml:space="preserve"
   xmlns:inkscape="http://www.inkscape.org/namespaces/inkscape"
   xmlns:sodipodi="http://sodipodi.sourceforge.net/DTD/sodipodi-0.dtd"
   xmlns="http://www.w3.org/2000/svg"
   xmlns:svg="http://www.w3.org/2000/svg"><sodipodi:namedview
     id="namedview7"
     pagecolor="#ffffff"
     bordercolor="#000000"
     borderopacity="0.25"
     inkscape:showpageshadow="2"
     inkscape:pageopacity="0.0"
     inkscape:pagecheckerboard="0"
     inkscape:deskcolor="#d1d1d1"
     inkscape:document-units="mm"
     showgrid="false" /><defs
     id="defs2" /><g
     inkscape:label="Layer 1"
     inkscape:groupmode="layer"
     id="layer1"
     transform="translate(-292.382,-1.8888077)"><g
       style="fill:#000000"
       id="g749"
       transform="matrix(8.8194444,0,0,8.8194444,274.74311,-15.750081)"><path
         d="M 12,22 C 17.5228,22 22,17.5228 22,12 22,11.5373 21.3065,11.4608 21.0672,11.8568 19.9289,13.7406 17.8615,15 15.5,15 11.9101,15 9,12.0899 9,8.5 9,6.13845 10.2594,4.07105 12.1432,2.93276 12.5392,2.69347 12.4627,2 12,2 6.47715,2 2,6.47715 2,12 2,17.5228 6.47715,22 12,22 Z"
         fill="#1c274c"
         id="path740"
         style="fill:#000000" /></g></g></svg>
