<?xml version="1.0" encoding="UTF-8" standalone="no"?>
<!-- Created with Inkscape (http://www.inkscape.org/) -->

<svg
   width="101.6mm"
   height="100.03367mm"
   viewBox="0 0 101.6 100.03367"
   version="1.1"
   id="svg5"
   xml:space="preserve"
   xmlns:inkscape="http://www.inkscape.org/namespaces/inkscape"
   xmlns:sodipodi="http://sodipodi.sourceforge.net/DTD/sodipodi-0.dtd"
   xmlns="http://www.w3.org/2000/svg"
   xmlns:svg="http://www.w3.org/2000/svg"><sodipodi:namedview
     id="namedview7"
     pagecolor="#ffffff"
     bordercolor="#000000"
     borderopacity="0.25"
     inkscape:showpageshadow="2"
     inkscape:pageopacity="0.0"
     inkscape:pagecheckerboard="0"
     inkscape:deskcolor="#d1d1d1"
     inkscape:document-units="mm"
     showgrid="false" /><defs
     id="defs2" /><g
     inkscape:label="Layer 1"
     inkscape:groupmode="layer"
     id="layer1"
     transform="translate(-31.619668,-86.19251)"><path
       d="m 82.419669,86.192513 c -28.0543,0 -50.8,22.745697 -50.8,50.799997 0,23.80404 16.391467,43.72187 38.489467,49.23367 -0.237067,-0.6858 -0.389467,-1.48167 -0.389467,-2.46804 v -8.68256 c -2.061633,0 -5.516033,0 -6.383867,0 -3.475566,0 -6.5659,-1.49437 -8.0645,-4.27143 -1.6637,-3.0861 -1.951566,-7.80627 -6.074833,-10.6934 -1.223433,-0.96097 -0.2921,-2.0574 1.1176,-1.90924 2.6035,0.7366 4.7625,2.52307 6.7945,5.17314 2.023533,2.6543 2.976033,3.25543 6.7564,3.25543 1.833033,0 4.576233,-0.10583 7.158567,-0.51223 1.388533,-3.52637 3.788833,-6.77334 6.722533,-8.3058 -16.9164,-1.7399 -24.989367,-10.15577 -24.989367,-21.58154 0,-4.91913 2.0955,-9.6774 5.655734,-13.68636 -1.1684,-3.97934 -2.637367,-12.09464 0.448733,-15.18497 7.611533,0 12.213167,4.93607 13.318067,6.26957 3.793066,-1.29964 7.958666,-2.03624 12.335933,-2.03624 4.385733,0 8.568267,0.7366 12.3698,2.0447 1.0922,-1.32503 5.698071,-6.27803 13.326531,-6.27803 3.0988,3.09457 1.6129,11.24373 0.4318,15.2146 3.53907,4.0005 5.62187,8.74607 5.62187,13.65673 0,11.4173 -8.06027,19.82894 -24.951268,21.5773 4.6482,2.4257 8.0391,9.24137 8.0391,14.3764 v 11.57393 c 0,0.44027 -0.09737,0.75777 -0.148166,1.13454 19.795064,-6.93844 34.014834,-25.73443 34.014834,-47.90017 0,-28.0543 -22.7457,-50.799997 -50.800001,-50.799997 z"
       id="path9"
       style="fill:#ffffff;stroke-width:4.23333"
       inkscape:export-filename="github-logo-white.svg"
       inkscape:export-xdpi="96.640953"
       inkscape:export-ydpi="96.640953" /></g></svg>
