<?xml version="1.0" encoding="UTF-8" standalone="no"?>
<!-- Created with Inkscape (http://www.inkscape.org/) -->

<svg
   width="189.61804mm"
   height="189.61804mm"
   viewBox="0 0 189.61804 189.61804"
   version="1.1"
   id="svg5"
   xml:space="preserve"
   xmlns:inkscape="http://www.inkscape.org/namespaces/inkscape"
   xmlns:sodipodi="http://sodipodi.sourceforge.net/DTD/sodipodi-0.dtd"
   xmlns="http://www.w3.org/2000/svg"
   xmlns:svg="http://www.w3.org/2000/svg"><sodipodi:namedview
     id="namedview7"
     pagecolor="#ffffff"
     bordercolor="#000000"
     borderopacity="0.25"
     inkscape:showpageshadow="2"
     inkscape:pageopacity="0.0"
     inkscape:pagecheckerboard="0"
     inkscape:deskcolor="#d1d1d1"
     inkscape:document-units="mm"
     showgrid="false" /><defs
     id="defs2" /><g
     inkscape:label="Layer 1"
     inkscape:groupmode="layer"
     id="layer1"
     transform="translate(278.01203,-294.44317)"><g
       style="fill:#ffffff"
       id="g738"
       transform="matrix(8.8194444,0,0,8.8194444,-289.03635,283.41886)"
       inkscape:export-filename="light-mode.svg"
       inkscape:export-xdpi="96.640953"
       inkscape:export-ydpi="96.640953"><path
         d="m 18,12 c 0,3.3137 -2.6863,6 -6,6 -3.31371,0 -6,-2.6863 -6,-6 0,-3.31371 2.68629,-6 6,-6 3.3137,0 6,2.68629 6,6 z"
         fill="#1c274c"
         id="path726"
         style="fill:#ffffff" /><path
         fill-rule="evenodd"
         clip-rule="evenodd"
         d="m 12,1.25 c 0.4142,0 0.75,0.33579 0.75,0.75 V 3 C 12.75,3.41421 12.4142,3.75 12,3.75 11.5858,3.75 11.25,3.41421 11.25,3 V 2 C 11.25,1.58579 11.5858,1.25 12,1.25 Z M 4.39861,4.39861 c 0.29289,-0.29289 0.76777,-0.29289 1.06066,0 l 0.39284,0.39284 c 0.29289,0.29289 0.29289,0.76776 0,1.06066 -0.2929,0.29289 -0.76777,0.29289 -1.06066,0 L 4.39861,5.45927 c -0.29289,-0.29289 -0.29289,-0.76777 0,-1.06066 z m 15.20249,2.6e-4 c 0.2929,0.29289 0.2929,0.76777 0,1.06066 l -0.3928,0.39284 c -0.2929,0.29289 -0.7678,0.29289 -1.0607,0 -0.2929,-0.2929 -0.2929,-0.76777 0,-1.06066 l 0.3929,-0.39284 c 0.2929,-0.29289 0.7677,-0.29289 1.0606,0 z M 1.25,12 c 0,-0.4142 0.33579,-0.75 0.75,-0.75 h 1 c 0.41421,0 0.75,0.3358 0.75,0.75 0,0.4142 -0.33579,0.75 -0.75,0.75 H 2 C 1.58579,12.75 1.25,12.4142 1.25,12 Z m 19,0 c 0,-0.4142 0.3358,-0.75 0.75,-0.75 h 1 c 0.4142,0 0.75,0.3358 0.75,0.75 0,0.4142 -0.3358,0.75 -0.75,0.75 h -1 c -0.4142,0 -0.75,-0.3358 -0.75,-0.75 z m -2.1024,6.1476 c 0.2929,-0.2929 0.7678,-0.2929 1.0607,0 l 0.3928,0.3929 c 0.2929,0.2929 0.2929,0.7677 0,1.0606 -0.2929,0.2929 -0.7677,0.2929 -1.0606,0 l -0.3929,-0.3928 c -0.2929,-0.2929 -0.2929,-0.7678 0,-1.0607 z m -12.29549,3e-4 c 0.29289,0.2929 0.29289,0.7678 0,1.0607 l -0.39284,0.3928 c -0.29289,0.2929 -0.76777,0.2929 -1.06066,0 -0.29289,-0.2929 -0.29289,-0.7678 0,-1.0607 l 0.39284,-0.3928 c 0.29289,-0.2929 0.76776,-0.2929 1.06066,0 z M 12,20.25 c 0.4142,0 0.75,0.3358 0.75,0.75 v 1 c 0,0.4142 -0.3358,0.75 -0.75,0.75 -0.4142,0 -0.75,-0.3358 -0.75,-0.75 v -1 c 0,-0.4142 0.3358,-0.75 0.75,-0.75 z"
         fill="#1c274c"
         id="path728"
         style="fill:#ffffff" /></g></g></svg>
